<svg xmlns="http://www.w3.org/2000/svg" height="800" width="1200" version="1.0" viewBox="-17.20278 -19.743275 149.09076 118.45965"><path d="M57.3412 78.3534c31.3255 0 56.7252-17.403 56.7252-38.8669C114.0664 18.02 88.6658.618 57.3412.618 26.0167.6179.6188 18.0209.6188 39.4875c0 21.463 25.397 38.8659 56.7224 38.8659z" fill="#ffdf1b"/><path d="M0 39.4875C0 61.2603 25.7227 78.973 57.3412 78.973c31.6195 0 57.344-17.7128 57.344-39.4856C114.6852 17.7137 88.9607 0 57.3412 0 25.7227 0 0 17.7137 0 39.4875zm1.2376 0c0-21.0906 25.1673-38.249 56.1027-38.249 30.9372 0 56.1064 17.1584 56.1064 38.249 0 21.0896-25.1692 38.247-56.1064 38.247-30.9344 0-56.1027-17.1574-56.1027-38.247z" fill="#006330"/><path d="M57.3412 72.9083c28.1755 0 51.003-14.9698 51.003-33.4218 0-18.464-22.8284-33.4254-51.003-33.4254-28.1661 0-51.002 14.9604-51.002 33.4254 0 18.452 22.8359 33.4218 51.002 33.4218z" fill="#006330"/><path d="M18.6928 51.7375l5.5617-27.5604h13.2888c7.9184 0 10.7623 4.873 9.62 10.5438-1.1976 5.9304-3.8389 8.8191-13.2768 8.8191h-4.5537l-1.6044 8.1975zm15.7537-14.755c2.1056 0 3.808-.84 4.2822-3.2136.5236-2.5648-2.3203-2.9148-4.2327-2.9148h-2.563l-1.2413 6.1283z" fill="#ffdf1b"/><path d="M67.6368 33.9603c0-2.1532-1.484-3.8976-4.3222-3.8976-3.1734 0-6.4662 2.926-7.3025 8.2254-.6048 3.8976-.2044 7.5068 4.3933 7.5068 3.079 0 5.4889-3.0865 6.048-4.7282h8.19c-1.6987 6.8376-7.4051 11.1524-14.6786 11.1524-7.2025 0-12.7988-3.921-12.7988-11.8235 0-11.803 8.693-17.0697 16.787-17.0697 8.4252 0 11.59 6.0648 11.2653 10.6353h-7.5815zm5.6094 17.7772L78.695 24.177h8.4186l-3.935 20.2682H95.214l-1.5204 7.2922z" fill="#ffdf1b"/></svg>